<mxfile host="app.diagrams.net" modified="2023-06-09T03:47:11.316Z" agent="Mozilla/5.0 (Windows NT 10.0; Win64; x64) AppleWebKit/537.36 (KHTML, like Gecko) Chrome/114.0.0.0 Safari/537.36 Edg/114.0.1823.37" etag="cWHCuRh2JQ-mH9WSrJQJ" version="21.3.8" type="github">
  <diagram name="Page-1" id="c4acf3e9-155e-7222-9cf6-157b1a14988f">
    <mxGraphModel dx="899" dy="442" grid="1" gridSize="10" guides="1" tooltips="1" connect="1" arrows="1" fold="1" page="1" pageScale="1" pageWidth="1169" pageHeight="827" background="#F7F5ED" math="0" shadow="0">
      <root>
        <mxCell id="0" />
        <mxCell id="1" parent="0" />
        <mxCell id="0Ioa_GH7IEA-KaRj8je9-1" value="&lt;font face=&quot;Comic Sans MS&quot;&gt;能创建不同风格建筑的工厂，支持建筑风格的动态扩展&lt;/font&gt;" style="text;html=1;align=center;verticalAlign=middle;resizable=0;points=[];autosize=1;strokeColor=none;fillColor=none;" vertex="1" parent="1">
          <mxGeometry x="265" y="230" width="310" height="30" as="geometry" />
        </mxCell>
        <mxCell id="0Ioa_GH7IEA-KaRj8je9-10" style="edgeStyle=orthogonalEdgeStyle;rounded=0;orthogonalLoop=1;jettySize=auto;html=1;" edge="1" parent="1" source="0Ioa_GH7IEA-KaRj8je9-3" target="0Ioa_GH7IEA-KaRj8je9-9">
          <mxGeometry relative="1" as="geometry" />
        </mxCell>
        <mxCell id="0Ioa_GH7IEA-KaRj8je9-3" value="BuildingFactory" style="swimlane;fontStyle=0;childLayout=stackLayout;horizontal=1;startSize=26;fillColor=none;horizontalStack=0;resizeParent=1;resizeParentMax=0;resizeLast=0;collapsible=1;marginBottom=0;whiteSpace=wrap;html=1;" vertex="1" parent="1">
          <mxGeometry x="240" y="309" width="170" height="52" as="geometry" />
        </mxCell>
        <mxCell id="0Ioa_GH7IEA-KaRj8je9-8" value="+ createBuilding:&amp;nbsp;&lt;b style=&quot;border-color: var(--border-color); text-align: center;&quot;&gt;IBuilding&lt;/b&gt;" style="text;strokeColor=none;fillColor=none;align=left;verticalAlign=top;spacingLeft=4;spacingRight=4;overflow=hidden;rotatable=0;points=[[0,0.5],[1,0.5]];portConstraint=eastwest;whiteSpace=wrap;html=1;" vertex="1" parent="0Ioa_GH7IEA-KaRj8je9-3">
          <mxGeometry y="26" width="170" height="26" as="geometry" />
        </mxCell>
        <mxCell id="0Ioa_GH7IEA-KaRj8je9-9" value="«interface»&lt;br&gt;&lt;b&gt;IBuilding&lt;/b&gt;" style="html=1;whiteSpace=wrap;" vertex="1" parent="1">
          <mxGeometry x="550" y="310" width="110" height="50" as="geometry" />
        </mxCell>
        <mxCell id="0Ioa_GH7IEA-KaRj8je9-16" style="edgeStyle=orthogonalEdgeStyle;rounded=0;orthogonalLoop=1;jettySize=auto;html=1;" edge="1" parent="1" source="0Ioa_GH7IEA-KaRj8je9-11" target="0Ioa_GH7IEA-KaRj8je9-9">
          <mxGeometry relative="1" as="geometry" />
        </mxCell>
        <mxCell id="0Ioa_GH7IEA-KaRj8je9-11" value="ModernBuilding" style="swimlane;fontStyle=1;align=center;verticalAlign=top;childLayout=stackLayout;horizontal=1;startSize=26;horizontalStack=0;resizeParent=1;resizeParentMax=0;resizeLast=0;collapsible=1;marginBottom=0;whiteSpace=wrap;html=1;" vertex="1" parent="1">
          <mxGeometry x="470" y="414" width="115" height="52" as="geometry" />
        </mxCell>
        <mxCell id="0Ioa_GH7IEA-KaRj8je9-17" style="edgeStyle=orthogonalEdgeStyle;rounded=0;orthogonalLoop=1;jettySize=auto;html=1;" edge="1" parent="1" source="0Ioa_GH7IEA-KaRj8je9-15" target="0Ioa_GH7IEA-KaRj8je9-9">
          <mxGeometry relative="1" as="geometry" />
        </mxCell>
        <mxCell id="0Ioa_GH7IEA-KaRj8je9-15" value="AncientBuilding" style="swimlane;fontStyle=1;align=center;verticalAlign=top;childLayout=stackLayout;horizontal=1;startSize=26;horizontalStack=0;resizeParent=1;resizeParentMax=0;resizeLast=0;collapsible=1;marginBottom=0;whiteSpace=wrap;html=1;" vertex="1" parent="1">
          <mxGeometry x="630" y="414" width="115" height="52" as="geometry" />
        </mxCell>
      </root>
    </mxGraphModel>
  </diagram>
</mxfile>
